<?xml version="1.0" encoding="UTF-8"?>
<svg width="1200pt" height="1200pt" version="1.1" viewBox="0 0 1200 1200" xmlns="http://www.w3.org/2000/svg">
 <path d="m1058.7 865.09 47.09-46.906c5.2734-5.2734 6.7266-13.09 3.4531-19.816-3.0898-6.7266-9.8164-10.91-17.453-10.184l-193.45 15.637c-8.5469 0.72656-15.453 7.4531-16.184 16.184l-2.9102 36.91-130.73-130.73 0.003906-229.64 72.91 160.73c12.727 30.91 47.453 47.09 79.273 36.91 17.453-5.6367 31.637-18.363 39.09-35.09 7.4531-16.727 7.4531-35.816-0.18359-52.91l-93.453-194.73 33.273-33.273 2.9102 36.91c0.72656 8.5469 7.4531 15.453 16.184 16.184l193.45 15.637h1.4531c6.9102 0 13.09-4 16-10.184 3.0898-6.7266 1.6367-14.727-3.4531-19.816l-46.91-46.91 60.543-60.914c45.816-45.816 23.09-102.73 4.5469-126.36-0.36328-0.54687-0.91016-1.0898-1.4531-1.6367l-97.277-97.273c-0.91016-1.0898-24.727-28.91-60.727-30.363-23.816-0.91016-46 9.0898-66.91 30l-201.45 204.55-28-7.0898v-39.273c25.09-31.637 40.91-77.816 40.91-120.18 0-64.727-40.91-103.27-109.27-103.27s-109.09 38.547-109.09 103.27c0 42.363 15.816 88.547 40.91 120.18v39.273l-25.09 6.3633-204.55-204c-20.727-20.727-43.637-30.91-66.727-29.816-36 1.4531-59.816 29.09-59.816 29.273l-98.551 98.359c-0.54688 0.54688-0.91016 1.0898-1.4531 1.6367-18.363 23.82-41.09 80.727 4.7266 126.36l60.91 60.91-46.91 46.91c-5.2734 5.2734-6.7266 13.09-3.4531 19.816 2.9102 6.1836 9.0898 10.184 16 10.184h1.4531l193.45-15.637c8.5469-0.72656 15.453-7.4531 16.184-16.184l2.9102-36.91 33.273 33.273-93.637 195.09c-7.4531 16.727-7.4531 35.816 0 52.363s21.637 29.453 39.09 35.09c31.637 10.184 66.547-6 79.09-36.363l73.09-161.27v229.45l-130.73 130.73-2.9102-36.91c-0.72656-8.5469-7.4531-15.453-16.184-16.184l-193.81-15.262c-7.4531-0.72656-14.363 3.4531-17.453 10.184-3.0938 6.7227-1.6406 14.543 3.4531 19.816l46.91 46.91-60.91 60.91c-45.816 45.816-23.09 102.73-4.5469 126.36 0.36328 0.54687 0.91016 1.0898 1.4531 1.6367l85.273 85.273c0.18359 0.18359 0.36328 0.36328 0.72656 0.72656l11.453 11.453c0.91016 1.0898 24.727 28.91 60.727 30.363h3.0898c22.363 0 43.816-10 63.637-29.816l149.27-149.27v96.184c0 45.816 37.273 83.09 83.09 83.09 26.727 0 50.184-12.91 65.453-32.547 15.273 19.637 38.727 32.547 65.453 32.547 45.816 0 83.09-37.273 83.09-83.09v-96.184l149.27 149.27c19.816 19.816 41.273 29.816 63.637 29.816h3.0898c36-1.4531 59.816-29.09 59.816-29.273l98.363-98.363c0.54688-0.54688 0.91016-1.0898 1.4531-1.6367 18.363-23.637 41.273-80.547-4.5469-126.36zm1.8203-696.36 36.363 36.363c5.2734 7.2734 30.727 46-2.1836 79.09l-73.453 73.453c-6.9102 6.9102-6.9102 18 0 24.91l25.453 25.453-130.73-10.547-10.547-130.55 30.184 30.184c6.5469 6.5469 18.363 6.5469 24.91 0l73.453-73.453c17.637-17.449 25.09-36.543 26.547-54.906zm-137.82-60.363c13.453-13.453 26.91-20 40.184-19.637 20.363 0.72656 35.637 17.816 36.547 18.91l11.637 11.637c4.7266 6.3633 31.453 46-2 79.453l-60.91 60.91-51.637-51.637c-5.2734-5.2734-13.09-6.5469-19.816-3.4531-6.7266 3.0898-10.727 10-10.184 17.453l8.9102 110.36-45.637 45.637-26.91-56.184c-2.1836-4.7266-6.5469-8.1836-11.453-9.4531l-55.637-14.184zm-322.73-54.91c74 0 74 51.09 74 68 0 54-35.816 123.82-74 123.82-38 0-74-69.816-74-123.82 0-45.09 24.91-68 74-68zm-446.91 354.73 25.453-25.453c6.9102-6.9102 6.9102-18 0-24.91l-73.453-73.453c-33.09-33.09-7.4531-71.816-2.1836-79.09l36.363-36.363c1.4531 18.184 9.0898 37.453 26.547 54.91l73.453 73.453c6.9102 6.9102 18 6.9102 24.91 0l30.184-30.184-10.547 130.73zm171.27-75.82 8.9102-110.36c0.54687-7.2734-3.4531-14.363-10.184-17.453-6.7266-3.0898-14.727-1.6367-19.816 3.4531l-51.637 51.637-60.91-60.91c-33.816-33.816-6.1836-73.816-1.8164-79.637l12.363-12.363c0.18359-0.18359 15.273-17.273 35.637-18 13.09 0 26.727 6.1836 40.184 19.637l189.64 189.09-58.363 14.91c-5.0898 1.2734-9.2734 4.7266-11.453 9.4531l-26.91 56.184zm-185.09 734-36.363-36.363c-4.5469-6.1836-31.09-45.816 2.1836-79.09l73.453-73.453c6.9102-6.9102 6.9102-18 0-24.91l-25.453-25.453 130.73 10.547 10.547 130.73-30.184-30.184c-6.9102-6.9102-18-6.9102-24.91 0l-73.453 73.453c-17.457 17.453-24.91 36.547-26.547 54.727zm138 60.547c-13.453 13.453-26.363 20.184-40.184 19.453-20.363-0.72656-35.637-17.816-36.547-18.91l-11.637-11.637c-4.9102-6.5469-31.453-46 2-79.273l60.91-60.91 51.637 51.637c5.2734 5.2734 13.09 6.5469 19.816 3.4531 6.7266-3.0898 10.727-10 10.184-17.453l-8.9102-110.36 127.09-127.09v176.91zm436-28.184c0 26.363-21.453 47.816-47.816 47.816s-47.816-21.453-47.816-47.816l-0.003906-362.54c0-9.8164-7.8164-17.637-17.637-17.637-9.8164 0-17.637 7.8164-17.637 17.637v362.55c0 26.363-21.453 47.816-47.816 47.816s-47.816-21.453-47.816-47.816l-0.003907-683.82c0-8.3633-5.8164-15.453-14-17.273-8.1836-1.8164-16.363 2.3633-19.816 10l-107.09 236.18c-5.6367 14-21.453 21.273-35.816 16.727-8-2.5469-14.184-8.1836-17.637-15.816-3.4531-7.6367-3.4531-16-0.18359-23.273l132.91-277.27 128.55-32.727c7.8164-2 13.273-9.0898 13.273-17.09v-22.547c10.363 5.4531 21.453 8.3633 32.91 8.3633 11.637 0 22.547-3.0898 32.91-8.3633v22.547c0 8 5.4531 15.09 13.273 17.09l128.55 32.727 132.73 276.73c3.4531 7.6367 3.4531 16 0 23.637s-9.6367 13.273-17.637 15.816c-14.363 4.7266-30.184-2.7266-36-17.273l-106.73-235.64c-3.4531-7.6367-11.637-11.816-19.816-10-8.1836 1.8164-14 8.9102-14 17.273l-0.011718 684zm297.64 17.457-12.363 12.363c-0.18359 0.18359-15.273 17.273-35.637 18-13.273 0.72656-26.727-6.1836-40.184-19.453l-174.18-174.36v-176.91l127.09 127.09-8.9102 110.36c-0.54688 7.2734 3.4531 14.363 10.184 17.453 6.7266 3.0898 14.547 1.6367 19.816-3.4531l51.637-51.637 60.91 60.91c33.82 34 5.8203 74 1.6406 79.637zm86.18-86.184-36.363 36.363c-1.4531-18.184-9.0898-37.453-26.547-54.91l-73.453-73.453c-3.2734-3.2734-7.8164-5.0898-12.547-5.0898-4.7266 0-9.0898 1.8164-12.547 5.0898l-30.184 30.184 10.547-130.55 130.73-10.547-25.453 25.453c-6.9102 6.9102-6.9102 18 0 24.91l73.453 73.453c33.094 33.094 7.4609 72.004 2.3672 79.094z" fill="#fff"/>
</svg>
