<?xml version="1.0" encoding="UTF-8"?>
<svg width="1200pt" height="1200pt" version="1.1" viewBox="0 0 1200 1200" xmlns="http://www.w3.org/2000/svg">
 <g fill="#fff">
  <path d="m1080 100h-282.26c-11.047 0-20 8.9453-20 20s8.9531 20 20 20h262.26v262.27c0 11.055 8.9531 20 20 20s20-8.9453 20-20v-282.27c0-11.055-8.9531-20-20-20z"/>
  <path d="m100 120v282.27c0 11.055 8.9531 20 20 20s20-8.9453 20-20v-262.27h262.27c11.047 0 20-8.9453 20-20s-8.9531-20-20-20h-282.27c-11.047 0-20 8.9453-20 20z"/>
  <path d="m402.26 1060h-262.26v-262.27c0-11.055-8.9531-20-20-20s-20 8.9453-20 20v282.27c0 11.055 8.9531 20 20 20h282.26c11.047 0 20-8.9453 20-20s-8.957-20-20-20z"/>
  <path d="m1080 777.73c-11.047 0-20 8.9453-20 20v262.27h-262.26c-11.047 0-20 8.9453-20 20s8.9531 20 20 20h282.26c11.047 0 20-8.9453 20-20v-282.27c0-11.055-8.9531-20-20-20z"/>
  <path d="m867.81 872.87v-119.73c0-60.156-48.945-109.1-109.1-109.1h-317.42c-60.156 0-109.1 48.945-109.1 109.1v119.73c0 11.055 8.9531 20 20 20h495.62c11.051 0 20.004-8.9453 20.004-20zm-40-20h-81.121v-61.406c0-11.055-8.9531-20-20-20s-20 8.9453-20 20v61.406h-213.38v-61.406c0-11.055-8.9531-20-20-20s-20 8.9453-20 20v61.406h-81.121v-99.727c0-38.105 30.996-69.102 69.102-69.102h317.42c38.105 0 69.102 30.996 69.102 69.102z"/>
  <path d="m464.45 442.68c0 74.746 60.809 135.55 135.55 135.55 74.746 0 135.55-60.801 135.55-135.55 0.003906-74.746-60.809-135.55-135.55-135.55-74.734 0-135.55 60.801-135.55 135.55zm231.1 0c0 52.676-42.871 95.547-95.555 95.547s-95.547-42.871-95.547-95.547 42.863-95.547 95.547-95.547 95.555 42.871 95.555 95.547z"/>
 </g>
</svg>
